<mxfile host="app.diagrams.net" modified="2023-05-10T06:10:43.267Z" agent="Mozilla/5.0 (Windows NT 10.0; Win64; x64) AppleWebKit/537.36 (KHTML, like Gecko) Chrome/112.0.0.0 Safari/537.36" etag="fxtMP6znJotEz5kTa44i" version="21.2.9" type="github">
  <diagram name="Page-1" id="w_sK5BOsKpVJc6yAs99b">
    <mxGraphModel dx="2074" dy="1166" grid="1" gridSize="10" guides="1" tooltips="1" connect="1" arrows="1" fold="1" page="1" pageScale="1" pageWidth="850" pageHeight="1100" math="0" shadow="0">
      <root>
        <mxCell id="0" />
        <mxCell id="1" parent="0" />
        <mxCell id="srMbYsyrMNE7FpBEqHGH-67" value="Portal" style="ellipse;whiteSpace=wrap;html=1;" vertex="1" parent="1">
          <mxGeometry x="110" y="110" width="120" height="80" as="geometry" />
        </mxCell>
        <mxCell id="srMbYsyrMNE7FpBEqHGH-68" value="VA&lt;br&gt;Bot engine" style="ellipse;whiteSpace=wrap;html=1;" vertex="1" parent="1">
          <mxGeometry x="370" y="110" width="120" height="80" as="geometry" />
        </mxCell>
        <mxCell id="srMbYsyrMNE7FpBEqHGH-69" value="IDOL" style="ellipse;whiteSpace=wrap;html=1;" vertex="1" parent="1">
          <mxGeometry x="100" y="320" width="120" height="80" as="geometry" />
        </mxCell>
        <mxCell id="srMbYsyrMNE7FpBEqHGH-70" value="Vault" style="ellipse;whiteSpace=wrap;html=1;" vertex="1" parent="1">
          <mxGeometry x="350" y="320" width="120" height="80" as="geometry" />
        </mxCell>
        <mxCell id="srMbYsyrMNE7FpBEqHGH-71" value="VA&lt;br&gt;Admin UI" style="ellipse;whiteSpace=wrap;html=1;" vertex="1" parent="1">
          <mxGeometry x="630" y="110" width="120" height="80" as="geometry" />
        </mxCell>
        <mxCell id="srMbYsyrMNE7FpBEqHGH-72" value="AWS&lt;br&gt;Sagemake" style="ellipse;whiteSpace=wrap;html=1;" vertex="1" parent="1">
          <mxGeometry x="630" y="320" width="120" height="80" as="geometry" />
        </mxCell>
        <mxCell id="srMbYsyrMNE7FpBEqHGH-80" value="" style="endArrow=classic;startArrow=classic;html=1;rounded=0;entryX=0;entryY=0.5;entryDx=0;entryDy=0;" edge="1" parent="1" target="srMbYsyrMNE7FpBEqHGH-68">
          <mxGeometry width="50" height="50" relative="1" as="geometry">
            <mxPoint x="230" y="150" as="sourcePoint" />
            <mxPoint x="280" y="100" as="targetPoint" />
          </mxGeometry>
        </mxCell>
        <mxCell id="srMbYsyrMNE7FpBEqHGH-81" value="" style="endArrow=classic;startArrow=classic;html=1;rounded=0;entryX=0;entryY=0.5;entryDx=0;entryDy=0;" edge="1" parent="1">
          <mxGeometry width="50" height="50" relative="1" as="geometry">
            <mxPoint x="490" y="150" as="sourcePoint" />
            <mxPoint x="630" y="150" as="targetPoint" />
          </mxGeometry>
        </mxCell>
        <mxCell id="srMbYsyrMNE7FpBEqHGH-82" value="" style="endArrow=classic;startArrow=classic;html=1;rounded=0;exitX=0.5;exitY=0;exitDx=0;exitDy=0;" edge="1" parent="1" source="srMbYsyrMNE7FpBEqHGH-69" target="srMbYsyrMNE7FpBEqHGH-71">
          <mxGeometry width="50" height="50" relative="1" as="geometry">
            <mxPoint x="180" y="280" as="sourcePoint" />
            <mxPoint x="320" y="280" as="targetPoint" />
          </mxGeometry>
        </mxCell>
        <mxCell id="srMbYsyrMNE7FpBEqHGH-85" value="" style="endArrow=classic;startArrow=classic;html=1;rounded=0;entryX=0.156;entryY=0.95;entryDx=0;entryDy=0;entryPerimeter=0;" edge="1" parent="1" target="srMbYsyrMNE7FpBEqHGH-71">
          <mxGeometry width="50" height="50" relative="1" as="geometry">
            <mxPoint x="430" y="319" as="sourcePoint" />
            <mxPoint x="590" y="319" as="targetPoint" />
          </mxGeometry>
        </mxCell>
        <mxCell id="srMbYsyrMNE7FpBEqHGH-86" value="" style="endArrow=classic;startArrow=classic;html=1;rounded=0;entryX=0.5;entryY=0;entryDx=0;entryDy=0;exitX=0.5;exitY=1;exitDx=0;exitDy=0;" edge="1" parent="1" source="srMbYsyrMNE7FpBEqHGH-71" target="srMbYsyrMNE7FpBEqHGH-72">
          <mxGeometry width="50" height="50" relative="1" as="geometry">
            <mxPoint x="652" y="240" as="sourcePoint" />
            <mxPoint x="792" y="240" as="targetPoint" />
          </mxGeometry>
        </mxCell>
      </root>
    </mxGraphModel>
  </diagram>
</mxfile>
